<?xml version="1.0" standalone="no"?>
<!DOCTYPE svg PUBLIC "-//W3C//DTD SVG 20010904//EN"
 "http://www.w3.org/TR/2001/REC-SVG-20010904/DTD/svg10.dtd">
<svg version="1.0" xmlns="http://www.w3.org/2000/svg"
 width="600.000000pt" height="600.000000pt" viewBox="0 0 600.000000 600.000000"
 preserveAspectRatio="xMidYMid meet">
<metadata>
Created by potrace 1.11, written by Peter Selinger 2001-2013
</metadata>
<g transform="translate(0.000000,600.000000) scale(0.100000,-0.100000)"
fill="#000000" stroke="none">
<path d="M0 3000 l0 -3000 161 0 160 0 -7 23 c-4 12 -17 45 -30 72 -30 63 -89
261 -105 346 -32 181 -22 240 63 353 48 64 71 129 108 301 4 22 18 85 29 140
12 55 33 170 46 255 41 252 46 278 82 425 55 226 131 456 199 603 13 29 24 57
24 62 0 6 4 18 9 28 16 29 38 85 51 127 7 22 16 44 21 49 5 6 9 16 9 23 0 7
27 57 60 112 33 55 60 105 60 111 0 5 4 10 9 10 5 0 17 22 26 49 9 27 24 56
33 64 29 27 246 100 372 127 102 21 104 29 24 108 -36 36 -54 62 -54 79 0 20
4 23 21 18 18 -6 19 -5 7 14 -7 12 -16 21 -20 21 -5 0 -8 10 -8 21 0 19 -2 20
-16 8 -15 -12 -16 -10 -12 24 2 20 1 37 -3 37 -4 0 -12 12 -17 28 l-10 27 -1
-30 c-1 -21 -4 -26 -10 -16 -7 11 -11 10 -20 -5 -9 -17 -10 -17 -11 -1 0 9 -5
17 -10 17 -7 0 -8 23 -5 63 4 39 2 68 -5 77 -9 11 -13 12 -17 3 -8 -21 -33
-15 -33 7 0 23 31 41 38 22 5 -17 32 -15 32 2 0 8 4 16 8 18 5 2 12 25 15 52
4 27 4 46 0 43 -3 -4 -14 5 -24 19 -13 21 -16 39 -12 81 6 55 -13 188 -29 210
-5 6 -8 17 -6 25 4 19 -23 108 -33 108 -12 0 -79 66 -79 78 0 6 -13 21 -30 34
-16 12 -30 26 -30 31 0 6 -12 25 -26 44 -19 25 -23 37 -15 47 16 19 2 27 -34
20 -22 -4 -35 -1 -44 10 -8 9 -22 16 -33 16 -27 0 -78 31 -78 47 0 7 9 13 19
13 23 0 36 16 21 25 -5 3 -10 14 -10 24 0 10 -11 26 -25 35 -28 18 -25 36 6
36 33 0 24 39 -14 55 -34 14 -64 59 -47 70 5 3 7 12 3 20 -3 8 0 15 6 15 6 0
11 -4 11 -9 0 -6 12 -17 28 -26 15 -9 38 -39 51 -66 33 -70 65 -63 56 13 -8
57 15 94 30 48 3 -11 12 -20 19 -20 9 0 12 -9 9 -24 -6 -30 26 -84 38 -64 5 7
4 17 -1 22 -4 4 -6 15 -3 24 4 10 2 13 -5 8 -8 -5 -12 1 -12 18 0 13 -12 38
-26 55 -22 27 -32 31 -74 31 -51 0 -69 12 -51 34 13 15 -4 26 -40 26 -31 0
-22 18 16 30 41 14 69 -1 60 -30 -4 -14 0 -16 27 -12 18 3 38 11 46 18 7 8 20
14 28 14 30 0 4 45 -32 54 -35 9 -66 40 -69 68 -4 35 -4 35 -21 42 -16 6 -63
-39 -64 -63 0 -22 -26 4 -41 42 -7 18 -19 40 -27 49 -25 30 17 55 46 26 15
-15 16 -3 2 22 -15 27 4 34 41 15 34 -18 54 -9 43 19 -8 22 -85 56 -124 56
-44 0 -79 47 -50 65 6 3 10 17 10 31 0 26 17 33 26 9 4 -8 13 -15 21 -15 11 0
12 8 7 36 -7 36 -6 37 20 32 17 -3 33 0 42 9 11 11 26 14 54 9 32 -5 40 -3 40
9 0 8 5 15 11 15 5 0 7 -4 4 -10 -3 -5 1 -10 9 -10 19 0 19 2 4 35 -6 14 -17
25 -24 25 -7 0 -10 9 -7 23 4 17 3 19 -6 7 -12 -17 -27 -6 -33 25 -2 11 -16
26 -32 33 -31 15 -26 27 16 37 24 6 29 3 38 -20 l11 -28 19 21 c28 30 25 49
-10 57 -16 4 -36 15 -44 26 -12 17 -15 18 -26 4 -14 -17 -66 -20 -75 -4 -4 5
0 25 9 44 12 25 21 32 36 28 11 -3 20 0 20 6 0 5 7 8 15 5 22 -9 30 24 11 45
-9 10 -16 25 -16 34 0 16 -34 17 -410 17 l-410 0 0 -3000z m760 2645 c7 -8 8
-15 2 -15 -5 0 -15 7 -22 15 -7 8 -8 15 -2 15 5 0 15 -7 22 -15z m-160 -31 c0
-17 -26 -19 -36 -3 -7 12 15 31 28 23 4 -3 8 -12 8 -20z m99 -378 c7 -8 16
-28 21 -45 10 -35 -10 -64 -39 -59 -22 4 -30 118 -8 118 8 0 20 -6 26 -14z
m-3 -157 c3 -6 2 -15 -3 -20 -12 -12 -53 1 -53 17 0 17 46 19 56 3z m-57 -71
c6 -17 8 -34 5 -37 -8 -8 -44 37 -44 55 0 27 28 14 39 -18z m61 -8 c0 -5 -4
-10 -10 -10 -5 0 -10 5 -10 10 0 6 5 10 10 10 6 0 10 -4 10 -10z m-84 -46 c-6
-16 -8 -16 -23 -2 -9 10 -13 23 -9 34 6 16 8 16 23 2 9 -10 13 -23 9 -34z
m294 17 c0 -17 -18 -21 -24 -6 -3 9 0 15 9 15 8 0 15 -4 15 -9z m-254 -56 c-3
-8 -12 -12 -21 -9 -20 8 -19 19 3 40 16 17 17 17 20 0 2 -9 1 -24 -2 -31z m54
3 c0 -10 -5 -18 -10 -18 -15 0 -23 27 -16 47 6 15 8 15 16 3 6 -8 10 -23 10
-32z m-20 -128 c12 -23 7 -25 -21 -9 -11 5 -17 14 -14 20 10 15 23 11 35 -11z
m-105 -19 c3 -5 1 -12 -5 -16 -5 -3 -10 1 -10 9 0 18 6 21 15 7z m226 -21 c5
0 9 -7 9 -15 0 -18 -21 -20 -38 -3 -17 17 -15 31 4 24 9 -3 20 -6 25 -6z
m-124 -22 c-3 -8 -6 -5 -6 6 -1 11 2 17 5 13 3 -3 4 -12 1 -19z m-97 -63 c4
-5 7 -32 5 -60 -2 -27 -4 -66 -4 -86 -1 -24 -7 -39 -17 -43 -9 -4 -13 -2 -8 5
3 6 6 27 5 47 -1 21 -2 53 -3 72 0 19 1 60 2 90 3 44 4 48 7 20 3 -19 8 -39
13 -45z m-27 -255 c3 -11 1 -23 -4 -26 -5 -3 -9 6 -9 20 0 31 6 34 13 6z m12
-170 c-3 -11 -8 -55 -11 -97 -3 -43 -9 -112 -14 -153 -7 -63 -8 -51 -6 75 2
108 7 156 17 173 17 27 22 28 14 2z m12 -52 c-3 -7 -5 -2 -5 12 0 14 2 19 5
13 2 -7 2 -19 0 -25z m-10 -235 c-3 -10 -5 -2 -5 17 0 19 2 27 5 18 2 -10 2
-26 0 -35z m642 -106 c0 -21 -1 -21 -9 -2 -12 28 -12 37 0 30 6 -3 10 -16 9
-28z m-639 13 c0 -5 -4 -10 -10 -10 -5 0 -10 5 -10 10 0 6 5 10 10 10 6 0 10
-4 10 -10z m-7 -109 c-1 -2 -9 -1 -18 2 -10 4 -15 19 -14 44 0 30 2 34 9 18 8
-19 9 -18 11 5 1 15 5 7 8 -20 4 -25 5 -47 4 -49z m7 -62 c0 -5 -4 -9 -10 -9
-5 0 -10 7 -10 16 0 8 5 12 10 9 6 -3 10 -10 10 -16z m627 -15 c3 -8 1 -20 -4
-25 -7 -7 -12 -2 -15 15 -6 28 9 36 19 10z m33 -64 c0 -5 -4 -10 -10 -10 -5 0
-10 -9 -10 -20 0 -11 -4 -20 -10 -20 -13 0 -13 3 2 35 11 25 28 34 28 15z"/>
<path d="M2941 5939 c1 -33 -3 -65 -10 -72 -8 -8 -11 -4 -11 17 0 15 -4 25
-10 21 -5 -3 -7 -12 -4 -19 3 -8 1 -17 -5 -20 -5 -4 -13 4 -17 16 -7 22 -7 22
-15 3 -4 -11 -8 -33 -8 -50 1 -16 3 -23 6 -15 4 10 10 3 18 -20 8 -23 18 -34
28 -32 22 4 45 -33 39 -63 -4 -22 -8 -24 -41 -19 -50 8 -55 8 -146 -1 -44 -4
-106 -16 -138 -26 -32 -10 -77 -24 -99 -30 -22 -6 -68 -23 -102 -38 -34 -16
-87 -40 -119 -55 -32 -14 -83 -45 -114 -69 -31 -23 -83 -62 -117 -86 -34 -24
-62 -47 -64 -51 -1 -4 -34 -49 -72 -99 -70 -91 -70 -92 -70 -156 0 -53 -6 -76
-41 -148 -52 -108 -73 -219 -63 -337 4 -47 6 -125 4 -175 -7 -199 -6 -206 29
-267 18 -32 37 -61 42 -64 12 -7 11 -51 -1 -75 -9 -15 -7 -21 5 -25 20 -8 19
-23 -5 -75 -11 -24 -20 -64 -20 -88 0 -29 -6 -48 -17 -56 -15 -11 -15 -14 0
-36 10 -13 17 -37 16 -54 0 -28 -1 -28 -9 -7 -7 15 -18 22 -37 22 -17 0 -23
-3 -16 -8 7 -4 15 -27 19 -50 4 -27 12 -42 21 -42 9 0 11 5 6 13 -4 6 7 1 24
-13 18 -14 32 -32 32 -42 1 -9 17 -35 36 -58 50 -60 43 -72 -9 -17 -24 26 -48
47 -54 47 -5 0 -12 6 -15 13 -6 16 -67 51 -67 39 0 -5 7 -15 15 -22 19 -16 20
-54 1 -47 -29 11 -25 -8 9 -40 43 -40 44 -53 5 -53 -36 0 -40 -21 -7 -39 16
-9 34 -9 72 0 103 22 115 22 130 3 8 -11 15 -24 15 -31 0 -6 14 -34 31 -62 22
-35 33 -67 36 -102 6 -74 65 -160 125 -181 16 -6 35 -23 44 -40 46 -90 162
-167 251 -168 12 0 59 -25 105 -56 46 -30 98 -62 116 -70 23 -9 31 -18 26 -26
-85 -140 -245 -324 -353 -406 -72 -54 -284 -227 -325 -264 -10 -9 -22 -15 -27
-13 -4 3 -24 -10 -44 -29 -35 -33 -36 -38 -30 -78 16 -98 68 -192 153 -275 24
-24 105 -91 179 -149 l135 -104 30 21 c16 12 34 32 40 45 6 13 15 24 20 24 4
0 8 5 8 11 0 6 6 17 14 24 12 12 15 12 21 -3 13 -33 16 -64 6 -76 -7 -8 -7
-25 1 -52 6 -21 13 -32 15 -24 3 8 9 24 14 36 6 11 9 27 7 35 -2 9 7 15 25 17
24 3 27 0 24 -20 -2 -13 -2 -18 0 -11 5 14 94 23 110 10 14 -10 39 3 89 50 16
15 43 35 58 43 34 17 63 56 67 90 3 19 11 26 31 28 14 2 32 9 38 17 6 8 18 11
26 8 8 -3 21 3 29 13 12 16 17 17 34 7 28 -17 28 -17 35 13 5 20 10 24 18 16
8 -8 14 -8 22 3 13 16 72 22 100 10 11 -5 26 -3 37 3 11 7 20 8 24 2 11 -17
25 -11 35 15 8 22 13 24 29 15 11 -5 27 -7 37 -3 12 4 15 3 10 -5 -14 -23 25
-12 48 13 14 15 30 23 38 20 9 -4 18 1 22 10 3 9 10 13 16 10 5 -3 10 1 10 9
0 9 5 16 12 16 6 0 8 3 5 6 -10 10 56 42 73 36 38 -14 106 -116 142 -215 13
-37 15 -60 9 -93 -5 -24 -6 -46 -3 -49 11 -10 105 -5 162 10 61 16 131 45 250
103 84 41 155 108 208 195 43 72 37 103 -31 157 -28 22 -61 55 -74 72 -12 18
-27 34 -31 37 -23 16 -82 108 -102 158 -13 32 -31 69 -40 83 -10 14 -30 49
-45 79 -26 52 -27 63 -30 215 -3 186 -13 252 -61 394 -19 57 -34 110 -34 118
0 27 -30 73 -64 99 -24 18 -52 28 -90 32 -53 5 -54 6 -45 30 17 46 11 58 -35
72 -36 10 -116 69 -116 85 0 3 19 -4 43 -14 23 -11 50 -20 59 -20 10 0 39 -21
65 -46 43 -41 67 -53 212 -105 90 -32 168 -59 172 -59 5 0 32 -10 61 -23 81
-36 123 -52 253 -98 211 -74 353 -155 454 -260 31 -33 64 -67 74 -76 10 -10
41 -41 70 -69 56 -54 63 -70 96 -229 10 -49 21 -97 24 -105 3 -8 22 -87 42
-175 20 -88 46 -194 56 -235 11 -41 23 -87 26 -103 3 -15 9 -27 14 -27 5 0 9
-5 9 -12 0 -6 13 -38 29 -72 33 -72 53 -136 82 -266 31 -140 48 -231 48 -268
1 -18 6 -43 13 -55 18 -34 59 -149 62 -175 1 -13 7 -27 12 -30 6 -4 16 -23 23
-42 7 -19 17 -44 23 -55 5 -12 10 -27 12 -35 5 -34 80 -131 105 -136 44 -10
165 -42 184 -49 16 -7 17 94 17 2044 0 2042 0 2051 -20 2051 -11 0 -20 5 -20
11 0 6 9 9 20 6 16 -4 20 0 20 17 0 12 -5 27 -12 34 -9 9 -9 12 0 12 8 0 11
50 10 183 0 100 -3 175 -5 165 -7 -29 -53 -34 -53 -6 0 6 7 5 17 -3 14 -12 16
-12 12 0 -8 23 -26 24 -47 3 -17 -17 -20 -17 -30 -3 -10 14 -12 14 -21 1 -6
-8 -11 -26 -11 -38 0 -15 -7 -26 -20 -29 -11 -3 -20 -9 -20 -14 0 -5 -10 -9
-22 -9 -19 0 -20 -2 -8 -11 12 -9 12 -10 -3 -5 -10 3 -21 6 -23 6 -2 0 -4 12
-4 28 0 35 -13 54 -32 47 -9 -4 -13 -15 -11 -29 5 -25 -4 -35 -37 -41 -11 -2
-29 -13 -41 -23 -25 -24 -59 -35 -59 -19 0 7 -5 4 -11 -6 -8 -13 -14 -15 -24
-7 -9 7 -21 7 -39 0 -22 -8 -26 -14 -21 -33 4 -15 3 -18 -3 -8 -8 11 -11 11
-18 0 -5 -8 -7 -24 -5 -36 1 -13 -2 -23 -8 -23 -6 0 -11 7 -11 15 0 8 -6 15
-14 15 -7 0 -16 11 -18 25 -6 28 7 44 15 21 4 -10 18 -2 51 28 25 23 46 44 46
47 0 2 -21 4 -46 4 -28 0 -48 5 -51 13 -7 16 -23 15 -23 -2 0 -18 -29 -29 -44
-17 -12 10 -15 -1 -19 -52 -1 -18 -3 -17 -18 2 -10 12 -21 21 -26 21 -13 0
-13 -33 0 -41 14 -10 -1 -29 -23 -29 -10 0 -21 9 -25 19 -3 11 -15 23 -26 26
-20 7 -20 7 -2 21 16 12 16 13 1 14 -9 0 -19 4 -23 9 -3 5 6 8 21 7 14 -2 30
-9 35 -17 7 -11 9 -10 9 4 0 10 -11 22 -25 27 -14 5 -25 15 -25 22 0 9 -3 8
-10 -2 -8 -11 -10 -5 -8 24 2 26 -2 40 -11 44 -11 3 -12 -3 -8 -29 4 -21 0
-46 -9 -64 -8 -16 -12 -22 -10 -13 3 11 -1 16 -12 15 -13 -1 -18 -12 -19 -52
-2 -31 0 -45 6 -36 5 7 14 10 20 7 17 -11 13 -44 -6 -56 -10 -6 -13 -13 -8
-16 6 -2 9 -22 7 -44 -4 -39 10 -55 22 -25 3 8 9 15 13 14 4 -1 10 0 13 1 17
7 57 6 70 -1 16 -9 13 -10 -32 -13 -27 -2 -22 -21 7 -24 14 -2 25 -8 25 -14 0
-7 -16 -8 -47 -4 -27 4 -56 8 -66 9 -23 3 -51 -67 -33 -82 12 -9 48 0 47 12
-3 23 1 25 19 7 34 -34 25 -44 -50 -52 -17 -2 -25 -9 -25 -23 0 -11 -10 -24
-21 -29 -31 -14 -46 -69 -27 -96 11 -16 12 -25 5 -32 -8 -8 -14 -4 -22 16 -11
30 -30 27 -30 -5 0 -10 -6 -19 -14 -19 -16 0 -30 -33 -29 -67 1 -13 2 -40 2
-60 1 -28 4 -34 11 -23 5 8 12 11 16 7 4 -4 3 -12 -3 -18 -6 -6 -9 -26 -6 -45
5 -33 -10 -49 -20 -21 -2 6 -7 9 -11 6 -4 -4 1 -14 10 -24 14 -14 15 -21 6
-36 -15 -24 -15 -29 2 -29 18 0 31 -39 18 -52 -7 -7 -7 -20 0 -40 13 -35 2
-50 -18 -24 -8 11 -14 16 -15 10 0 -5 -2 -24 -3 -42 -4 -38 6 -48 28 -27 9 9
17 11 21 5 3 -5 1 -10 -5 -10 -7 0 -9 -8 -5 -20 5 -14 2 -20 -9 -20 -9 0 -16
-8 -16 -19 0 -22 -20 -40 -21 -19 0 7 -4 3 -9 -9 -6 -15 -18 -23 -33 -23 -23
0 -67 -47 -67 -72 0 -6 -7 -3 -15 8 -14 18 -14 18 -15 -8 0 -23 -4 -28 -26
-28 -19 0 -25 -4 -20 -15 3 -8 1 -15 -3 -15 -5 0 -7 -8 -4 -18 5 -19 -31 -43
-54 -35 -17 6 2 37 44 75 26 24 30 33 22 47 -6 9 -19 17 -29 17 -10 0 -17 -3
-14 -7 2 -4 -3 -12 -11 -19 -10 -9 -15 -9 -15 -1 0 6 4 11 9 11 5 0 7 8 4 18
-4 17 7 21 67 25 12 1 15 13 13 50 -2 54 -9 69 -23 47 -8 -12 -10 -10 -10 8 0
12 -5 22 -10 22 -6 0 -5 8 2 20 11 17 9 23 -9 41 l-21 21 -21 -21 c-11 -11
-25 -21 -30 -21 -19 0 -23 22 -6 34 10 7 15 19 12 27 -4 10 -6 9 -6 -3 -1 -10
-8 -18 -16 -18 -9 0 -12 6 -9 15 5 11 2 13 -10 9 -9 -3 -23 0 -32 7 -13 10
-16 9 -21 -9 -6 -26 -89 -54 -132 -46 -20 4 -30 1 -34 -10 -5 -11 -14 -15 -29
-11 -13 3 -29 1 -37 -4 -15 -10 -8 -41 10 -41 6 0 9 7 5 15 -6 17 29 22 39 5
11 -18 -6 -50 -27 -50 -16 0 -18 -3 -9 -13 6 -8 8 -17 4 -20 -3 -4 1 -7 9 -7
23 0 30 -51 11 -72 -9 -10 -23 -18 -31 -18 -12 0 -12 -3 4 -15 13 -10 14 -14
5 -15 -11 0 -11 -3 -1 -15 10 -12 10 -15 -4 -15 -9 0 -16 6 -16 14 0 8 -7 22
-16 30 -8 9 -12 16 -7 16 17 0 6 73 -13 87 -10 8 -18 18 -17 23 2 5 7 46 12
90 6 57 14 85 26 94 15 11 15 14 -2 44 -13 24 -15 34 -6 40 12 8 21 37 27 89
2 23 0 30 -10 26 -8 -3 -14 0 -14 7 0 7 -6 6 -15 -4 -20 -19 -51 -10 -34 10
17 21 -10 76 -36 72 -23 -3 -50 20 -60 51 -4 12 -12 18 -21 14 -8 -3 -14 1
-14 10 0 10 8 13 26 9 24 -4 25 -3 12 17 -7 12 -19 19 -25 16 -8 -2 -13 4 -13
16 0 11 -10 24 -22 29 -22 8 -21 9 7 10 25 0 27 2 13 11 -25 14 -22 34 7 47
39 18 57 15 50 -7 -4 -14 0 -21 17 -26 36 -12 57 -37 45 -56 -8 -12 -4 -22 13
-39 26 -26 14 -38 -19 -21 -27 15 -30 14 -24 -9 3 -11 9 -20 13 -20 5 0 22
-11 38 -25 27 -23 32 -24 45 -10 9 8 19 15 24 15 4 0 8 11 8 25 0 18 -7 28
-22 32 -34 8 -27 45 10 51 12 2 17 -4 17 -18 0 -12 4 -18 10 -15 6 4 8 15 5
26 -4 13 -2 19 9 19 9 0 16 -6 17 -12 0 -7 4 -4 8 7 6 15 10 8 15 -32 6 -39
11 -50 22 -46 16 6 20 -22 4 -32 -5 -3 -14 -15 -20 -25 -8 -15 -7 -19 9 -17
23 1 34 41 24 89 -4 22 -3 29 5 24 8 -5 10 -2 6 9 -4 9 0 21 9 28 19 15 34 93
16 81 -8 -4 -10 -3 -5 4 4 7 -4 23 -17 36 -19 19 -21 26 -11 30 7 3 18 -3 23
-12 8 -14 12 -11 25 20 9 21 16 42 16 48 0 5 4 10 9 10 12 0 24 -37 16 -50 -3
-5 0 -7 8 -4 8 3 18 15 21 27 8 31 7 32 -6 32 -7 0 -12 9 -11 19 1 20 -19 46
-36 46 -6 0 -11 9 -11 20 0 11 7 20 15 20 19 0 19 7 -1 27 -9 9 -14 26 -11 39
4 21 1 23 -21 17 -24 -6 -25 -4 -19 25 7 34 -16 53 -31 25 -6 -10 -16 -14 -26
-10 -16 6 -16 8 0 32 13 19 14 28 5 39 -7 8 -11 43 -10 85 1 39 -1 74 -5 78
-3 3 -6 1 -6 -5 0 -22 -18 -12 -29 16 -6 15 -16 35 -23 44 -9 13 -9 22 0 42 7
14 17 37 24 51 8 17 8 28 0 37 -6 8 -9 26 -8 41 3 23 0 26 -15 22 -33 -11 -55
10 -56 54 -2 44 20 59 32 21 3 -11 11 -20 16 -20 14 0 11 28 -5 37 -32 19 -25
83 8 70 9 -4 16 -2 16 4 0 5 -6 12 -14 15 -12 5 -13 11 -4 29 16 35 40 42 32
8 -5 -19 -4 -24 6 -18 8 5 11 22 8 49 -3 27 0 46 8 54 12 11 11 19 -1 49 -9
20 -17 38 -18 39 -1 0 -11 6 -22 12 -19 10 -19 11 -2 18 11 4 25 0 37 -11 16
-15 22 -15 35 -5 22 18 18 32 -6 25 -15 -5 -19 -4 -15 4 4 6 2 11 -5 11 -7 0
-9 3 -6 7 4 3 2 12 -4 20 -9 10 -7 13 11 13 16 0 20 -4 16 -15 -4 -11 2 -15
20 -15 23 0 25 -3 20 -32 -5 -28 -3 -27 8 7 7 22 23 56 35 75 11 19 21 47 21
63 l0 27 -624 0 -623 0 -7 -137 c-9 -193 -17 -255 -30 -250 -6 2 -10 22 -9 48
6 92 9 147 17 242 l9 97 -167 0 -166 0 1 -61z m299 22 c0 -10 -7 -24 -16 -32
-13 -10 -17 -10 -24 1 -11 18 6 50 25 50 8 0 15 -8 15 -19z m287 -43 c-3 -7
-5 -2 -5 12 0 14 2 19 5 13 2 -7 2 -19 0 -25z m-317 -72 c0 -3 -4 -8 -10 -11
-5 -3 -10 -1 -10 4 0 6 5 11 10 11 6 0 10 -2 10 -4z m-298 -21 c0 -5 -5 -11
-11 -13 -6 -2 -11 4 -11 13 0 9 5 15 11 13 6 -2 11 -8 11 -13z m995 -17 c-3
-8 -6 -5 -6 6 -1 11 2 17 5 13 3 -3 4 -12 1 -19z m-967 -18 c0 -5 -4 -10 -10
-10 -5 0 -10 5 -10 10 0 6 5 10 10 10 6 0 10 -4 10 -10z m80 -40 c0 -5 -4 -10
-10 -10 -5 0 -10 5 -10 10 0 6 5 10 10 10 6 0 10 -4 10 -10z m1205 -2 c12 -34
9 -71 -5 -75 -13 -4 -13 -3 0 6 8 6 10 11 4 11 -11 0 -34 42 -34 60 0 15 30
12 35 -2z m-1188 -30 c0 -7 4 -21 8 -30 10 -25 -7 -22 -24 3 -11 18 -11 23 1
30 7 5 13 9 14 9 0 0 1 -6 1 -12z m470 -40 c-2 -13 -4 -5 -4 17 -1 22 1 32 4
23 2 -10 2 -28 0 -40z m843 42 c0 -5 -4 -10 -10 -10 -5 0 -10 5 -10 10 0 6 5
10 10 10 6 0 10 -4 10 -10z m-1255 -32 c-1 -12 -6 -23 -12 -25 -6 -2 -8 7 -6
22 6 31 20 33 18 3z m1083 6 c6 3 13 2 16 -3 3 -5 0 -11 -8 -14 -15 -6 -36 11
-36 28 0 5 4 4 9 -4 5 -7 13 -11 19 -7z m-83 -34 c-2 -28 -15 -57 -15 -32 0 7
-7 12 -15 12 -27 0 -12 24 31 49 0 1 0 -13 -1 -29z m234 -2 c12 -20 11 -24
-15 -45 -16 -13 -23 -23 -16 -23 17 0 15 -27 -3 -34 -22 -8 -37 34 -20 54 21
26 27 53 13 62 -9 5 -7 8 7 8 11 0 26 -10 34 -22z m-422 -20 c-3 -7 -5 -2 -5
12 0 14 2 19 5 13 2 -7 2 -19 0 -25z m347 1 c-3 -5 -11 -9 -19 -9 -7 0 -15 -5
-17 -12 -3 -7 -9 -8 -18 -3 -8 5 -30 8 -48 6 -22 -2 -32 1 -28 8 4 5 14 10 24
10 27 0 72 8 78 14 9 9 35 -4 28 -14z m-757 -51 c-3 -7 -5 -2 -5 12 0 14 2 19
5 13 2 -7 2 -19 0 -25z m543 6 c0 -14 4 -23 10 -19 6 3 10 0 10 -8 0 -21 -12
-28 -27 -15 -9 7 -17 8 -24 1 -7 -7 -5 -14 6 -23 8 -7 15 -24 14 -39 0 -14 -3
-20 -6 -13 -7 17 -23 15 -23 -4 0 -8 -4 -13 -9 -10 -5 3 -16 -6 -26 -20 -12
-19 -20 -23 -28 -15 -15 15 -27 14 -27 -4 0 -8 7 -15 15 -15 8 0 15 -4 15 -10
0 -5 -4 -10 -10 -10 -5 0 -10 -4 -10 -10 0 -5 3 -9 8 -8 12 2 42 -14 42 -23 0
-13 -38 -11 -46 2 -4 8 -9 7 -15 -2 -18 -27 -37 17 -33 74 8 104 8 107 27 107
9 0 17 -4 17 -10 0 -20 32 -10 61 19 27 28 41 59 19 46 -14 -9 -13 8 2 23 20
20 38 14 38 -14z m87 9 c-4 -3 -2 -12 4 -20 9 -10 8 -17 -1 -28 -16 -19 -30
-10 -30 19 0 24 7 36 23 36 6 0 7 -3 4 -7z m103 -127 c0 -3 -4 -8 -10 -11 -5
-3 -10 -1 -10 4 0 6 5 11 10 11 6 0 10 -2 10 -4z m55 -116 c3 -5 1 -10 -4 -10
-6 0 -11 5 -11 10 0 6 2 10 4 10 3 0 8 -4 11 -10z m-330 -299 c3 -5 0 -13 -6
-17 -6 -4 -16 1 -21 10 -9 16 -11 16 -24 -1 -17 -22 -18 -10 -2 16 9 15 16 17
29 10 10 -5 20 -13 24 -18z m415 -16 c0 -8 -7 -15 -15 -15 -26 0 -18 20 13 29
1 1 2 -6 2 -14z m-334 -79 c15 4 24 2 24 -6 0 -6 6 -10 13 -7 15 5 36 -23 30
-40 -4 -11 -10 -11 -29 2 -29 19 -44 13 -37 -15 6 -24 -18 -36 -45 -21 -17 9
-19 8 -15 -9 3 -11 14 -20 24 -20 10 0 21 -4 24 -10 11 -18 26 -10 20 10 -7
24 7 26 25 5 10 -12 10 -18 0 -30 -9 -10 -9 -15 -1 -15 6 0 11 -11 11 -24 0
-13 5 -26 11 -28 5 -2 7 -11 3 -21 -7 -20 -41 -18 -36 1 1 7 -5 15 -13 18 -8
4 -15 13 -15 21 0 8 -4 12 -8 9 -4 -2 -14 0 -22 5 -13 8 -13 10 0 18 12 9 12
11 -2 16 -8 3 -24 22 -34 42 -18 36 -49 73 -59 73 -3 0 -5 -12 -5 -27 0 -22
-2 -25 -10 -13 -5 8 -10 25 -10 37 0 20 4 21 46 16 l45 -5 -6 38 -7 39 27 -33
c21 -25 32 -31 51 -26z m1760 -53 c-10 -10 -19 5 -10 18 6 11 8 11 12 0 2 -7
1 -15 -2 -18z m-419 11 c-3 -3 -12 -4 -19 -1 -8 3 -5 6 6 6 11 1 17 -2 13 -5z
m-1255 -47 c-5 -7 -12 -19 -16 -27 -3 -8 -4 -5 -2 8 2 12 -1 22 -7 22 -7 0 -6
4 3 9 18 12 34 3 22 -12z m-197 -7 c7 0 16 -7 19 -16 4 -11 1 -14 -13 -9 -14
4 -20 -1 -25 -17 -5 -19 -8 -20 -16 -8 -5 8 -10 26 -10 39 0 17 4 22 16 17 9
-3 22 -6 29 -6z m1468 -4 c6 -15 -1 -26 -15 -26 -4 0 -8 9 -8 20 0 23 15 27
23 6z m-206 -28 c-3 -8 -6 -5 -6 6 -1 11 2 17 5 13 3 -3 4 -12 1 -19z m-1232
-28 c11 -5 15 -9 8 -9 -6 -1 -9 -10 -6 -21 4 -13 0 -20 -10 -20 -9 0 -16 12
-19 30 -5 32 -4 33 27 20z m1705 -20 c0 -5 -4 -10 -10 -10 -5 0 -10 5 -10 10
0 6 5 10 10 10 6 0 10 -4 10 -10z m-180 -20 c0 -5 -5 -10 -12 -10 -9 0 -9 -3
0 -12 7 -7 18 -13 25 -13 26 0 14 -20 -14 -22 -30 -3 -37 14 -23 51 7 18 24
22 24 6z m294 -14 c-7 -17 12 -30 21 -16 8 13 55 -34 55 -56 0 -8 -8 -18 -17
-21 -10 -4 -21 -11 -25 -17 -6 -8 -11 -7 -16 2 -13 20 -52 24 -52 5 0 -10 -6
-13 -16 -9 -9 4 -22 2 -29 -4 -9 -8 -15 -8 -20 0 -3 6 -10 8 -15 5 -4 -3 -21
2 -36 10 -29 15 -29 14 -42 -22 -13 -38 -28 -60 -36 -52 -18 20 -13 48 14 79
32 37 37 56 18 62 -6 2 -8 10 -4 16 13 21 26 13 26 -18 0 -22 4 -28 15 -24 8
4 15 17 15 30 0 13 5 24 10 24 6 0 10 -4 10 -10 0 -5 7 -10 15 -10 8 0 15 -4
15 -10 0 -5 7 -10 15 -10 8 0 15 9 15 20 0 14 6 19 22 17 12 -1 23 4 24 11 3
22 4 23 14 17 5 -3 7 -12 4 -19z m-1749 -24 c-3 -3 0 -11 7 -19 6 -7 8 -16 4
-20 -8 -9 -15 -1 -19 23 -1 10 -7 26 -12 34 -8 13 -7 13 8 1 10 -8 15 -16 12
-19z m-175 -33 c0 -20 -4 -29 -12 -26 -7 2 -13 9 -12 15 1 7 2 21 3 33 2 31
21 12 21 -22z m40 26 c0 -8 -4 -15 -10 -15 -5 0 -10 7 -10 15 0 8 5 15 10 15
6 0 10 -7 10 -15z m625 5 c3 -5 1 -10 -4 -10 -6 0 -11 5 -11 10 0 6 2 10 4 10
3 0 8 -4 11 -10z m-405 -31 c0 -17 -20 -49 -30 -49 -6 0 -10 14 -10 30 0 23 4
30 20 30 11 0 20 -5 20 -11z m-100 -23 c0 -17 -42 -16 -48 2 -2 7 6 12 22 12
15 0 26 -6 26 -14z m-120 -31 c0 -8 -4 -15 -9 -15 -13 0 -22 16 -14 24 11 11
23 6 23 -9z m1560 -31 c-12 -36 -14 -37 -21 -16 -6 16 -4 28 9 41 23 24 26 19
12 -25z m320 -10 c0 -17 -22 -14 -28 4 -2 7 3 12 12 12 9 0 16 -7 16 -16z
m-1893 -71 c1 -32 0 -53 -3 -46 -3 7 -11 10 -18 7 -21 -8 -27 66 -8 88 22 25
27 17 29 -49z m1403 63 c0 -2 -7 -7 -16 -10 -8 -3 -12 -2 -9 4 6 10 25 14 25
6z m131 -27 c9 -17 8 -23 -2 -30 -10 -6 -10 -9 -2 -9 7 0 21 -9 32 -21 l19
-21 11 20 c6 11 8 28 5 36 -4 11 -1 16 10 16 18 0 22 -25 6 -35 -16 -10 -12
-22 10 -28 14 -3 24 1 31 15 11 20 12 19 26 -11 15 -30 33 -42 33 -20 0 5 5 7
10 4 16 -10 12 -35 -4 -29 -11 4 -14 -3 -12 -30 2 -23 -2 -39 -10 -44 -11 -6
-12 -15 -4 -42 6 -19 10 -60 8 -90 -3 -69 5 -85 32 -62 11 9 20 22 20 29 0 13
30 19 30 6 0 -5 3 -19 6 -33 4 -20 3 -22 -5 -10 -9 12 -11 10 -11 -12 0 -15
-4 -30 -10 -33 -20 -12 -10 -25 19 -25 40 0 49 -18 14 -26 -38 -9 -124 -56
-130 -70 -8 -23 -43 -3 -44 25 0 25 -1 25 -9 4 -6 -15 -15 -21 -25 -17 -11 5
-18 0 -22 -15 -3 -11 -9 -21 -14 -21 -5 0 -9 -5 -9 -11 0 -5 5 -7 10 -4 6 3
10 1 10 -5 0 -6 -8 -10 -17 -8 -12 2 -19 -5 -21 -20 -3 -17 -8 -22 -19 -17 -9
3 -20 0 -24 -6 -4 -8 -9 -4 -14 10 -7 24 -35 29 -35 5 0 -13 -2 -13 -14 -2 -9
9 -14 39 -14 87 0 40 -5 78 -11 84 -17 17 -14 57 4 57 9 0 21 11 27 25 6 14
17 25 23 25 9 0 12 21 11 70 -2 39 1 70 6 70 7 0 13 -88 9 -133 -3 -22 22 -47
47 -47 20 0 36 25 26 41 -3 5 0 9 7 9 10 0 10 3 1 12 -7 7 -12 25 -12 41 0 18
-4 26 -11 21 -6 -3 -9 -19 -7 -35 3 -16 1 -29 -4 -29 -4 0 -8 24 -8 53 0 30
-6 61 -15 74 -8 12 -12 30 -9 40 4 13 3 15 -4 5 -5 -8 -16 -12 -24 -10 -11 2
-12 12 -5 46 6 31 13 42 22 38 8 -3 17 -1 20 4 4 6 11 10 16 10 6 0 7 -4 4
-10 -3 -5 -2 -10 4 -10 17 0 20 15 6 34 -9 12 -20 16 -31 12 -9 -3 -32 -4 -50
0 -37 7 -46 32 -19 54 11 10 18 9 30 -4 18 -18 29 -21 20 -6 -3 6 3 10 14 10
12 0 21 5 21 10 0 16 8 12 21 -11z m219 1 c0 -5 -2 -10 -4 -10 -3 0 -8 5 -11
10 -3 6 -1 10 4 10 6 0 11 -4 11 -10z m-1130 -48 c0 -5 -6 -17 -14 -27 -13
-18 -14 -18 -9 8 5 24 23 39 23 19z m-660 -57 c0 -8 -4 -15 -10 -15 -5 0 -10
7 -10 15 0 8 5 15 10 15 6 0 10 -7 10 -15z m305 -155 c-5 -8 -11 -8 -17 -2 -6
6 -7 16 -3 22 5 8 11 8 17 2 6 -6 7 -16 3 -22z m905 20 c0 -5 -4 -10 -10 -10
-5 0 -10 5 -10 10 0 6 5 10 10 10 6 0 10 -4 10 -10z m-827 -60 c4 0 7 8 8 18
0 13 2 12 9 -6 12 -28 1 -84 -14 -79 -6 2 -10 11 -10 20 1 9 -7 19 -17 22 -12
4 -19 16 -19 32 0 25 1 25 18 10 10 -10 22 -17 25 -17z m-111 -12 c-7 -7 -12
-8 -12 -2 0 6 3 14 7 17 3 4 9 5 12 2 2 -3 -1 -11 -7 -17z m49 -21 c-10 -9
-11 -8 -5 6 3 10 9 15 12 12 3 -3 0 -11 -7 -18z m-55 -33 c-4 -10 1 -22 10
-29 14 -9 14 -14 4 -20 -9 -5 -11 -4 -6 3 4 7 2 12 -3 12 -13 0 -14 -10 -2
-29 6 -9 11 -10 15 -2 13 20 23 12 45 -34 25 -54 27 -73 6 -55 -12 10 -15 10
-15 -1 0 -9 -3 -10 -8 -4 -4 6 -19 16 -34 22 -16 7 -28 18 -29 25 -6 73 -1
128 12 128 6 0 8 -7 5 -16z m-26 -14 c0 -5 -4 -10 -10 -10 -5 0 -10 5 -10 10
0 6 5 10 10 10 6 0 10 -4 10 -10z m144 -5 c14 -11 16 -15 5 -15 -8 0 -23 7
-33 15 -14 11 -16 15 -5 15 8 0 23 -7 33 -15z m-224 -9 c0 -8 8 -21 18 -28 19
-14 28 -58 12 -58 -6 0 -10 -9 -10 -20 0 -11 -6 -20 -12 -20 -8 0 -7 -4 3 -10
15 -9 18 -53 9 -139 0 -3 -7 4 -15 15 -8 10 -15 34 -15 52 0 20 -6 35 -15 38
-18 7 -20 51 -3 56 6 2 11 18 11 36 0 18 4 32 9 32 4 0 8 -5 8 -11 0 -5 5 -7
11 -3 6 3 7 9 2 13 -14 10 -33 61 -23 61 6 0 10 -6 10 -14z m203 -13 c19 -6
22 -20 7 -43 -7 -12 -10 -11 -16 5 -5 11 -17 28 -29 38 -20 18 -20 19 0 12 11
-4 28 -10 38 -12z m-299 -18 c-4 -8 -8 -15 -10 -15 -2 0 -4 7 -4 15 0 8 4 15
10 15 5 0 7 -7 4 -15z m358 -67 c-15 -15 -24 -6 -16 16 5 12 10 14 17 7 8 -8
8 -14 -1 -23z m-158 -24 c3 -8 10 -13 15 -9 22 13 51 -29 50 -70 l-1 -40 -10
38 c-6 20 -16 37 -24 37 -8 0 -14 5 -14 10 0 6 -5 10 -11 10 -15 0 -39 26 -32
34 11 10 21 7 27 -10z m6 -54 c0 -6 -4 -10 -10 -10 -5 0 -10 -7 -10 -16 0 -20
-19 -8 -29 20 -5 13 -4 24 2 28 13 8 47 -8 47 -22z m594 -56 c8 -22 -4 -40
-15 -23 -11 18 -11 39 0 39 5 0 12 -7 15 -16z m-691 -56 c7 -4 6 -12 -2 -22
-8 -9 -9 -16 -4 -16 5 0 9 -9 9 -20 0 -11 -4 -19 -9 -17 -5 1 -8 6 -7 11 1 5
-3 12 -9 15 -6 4 -8 22 -4 46 4 22 9 33 11 25 3 -8 10 -18 15 -22z m1297 -20
c-11 -10 -20 -24 -21 -31 0 -7 -4 -2 -10 11 -5 13 -6 34 -3 47 6 23 7 23 30 8
l25 -16 -21 -19z m-1202 -2 c3 -15 1 -16 -17 -5 -11 7 -17 17 -14 22 8 13 28
2 31 -17z m1809 -58 c-3 -7 -5 -2 -5 12 0 14 2 19 5 13 2 -7 2 -19 0 -25z
m-1473 -10 c-4 -6 -10 -5 -15 3 -14 22 -10 33 6 19 8 -7 12 -17 9 -22z m-294
-38 c0 -5 -2 -10 -4 -10 -3 0 -8 5 -11 10 -3 6 -1 10 4 10 6 0 11 -4 11 -10z
m720 -27 c0 -20 -3 -24 -11 -16 -7 7 -9 19 -6 27 10 24 17 19 17 -11z m-750
-23 c0 -5 -4 -10 -10 -10 -5 0 -10 5 -10 10 0 6 5 10 10 10 6 0 10 -4 10 -10z
m465 -31 c3 -4 -3 -14 -13 -21 -10 -7 -21 -21 -25 -30 -4 -12 -17 -18 -38 -18
-22 0 -30 4 -26 14 4 9 -4 16 -25 20 -30 6 -31 7 -13 26 22 24 33 25 56 4 16
-14 18 -14 28 4 11 20 45 21 56 1z m-491 -48 c3 -5 -1 -14 -9 -21 -13 -10 -15
-9 -15 9 0 21 14 28 24 12z m-1984 -31 c0 -5 -2 -10 -4 -10 -3 0 -8 5 -11 10
-3 6 -1 10 4 10 6 0 11 -4 11 -10z m2335 -86 c-9 -9 -18 -14 -21 -11 -9 9 6
27 22 27 13 0 13 -2 -1 -16z m-2611 -45 c-6 -11 -44 8 -44 21 0 6 10 5 25 -2
13 -6 22 -15 19 -19z m1606 -979 c0 -5 -4 -10 -10 -10 -5 0 -10 5 -10 10 0 6
5 10 10 10 6 0 10 -4 10 -10z m24 -5 c-4 -8 -8 -15 -10 -15 -2 0 -4 7 -4 15 0
8 4 15 10 15 5 0 7 -7 4 -15z"/>
<path d="M3995 5510 c-3 -5 -1 -10 4 -10 6 0 11 5 11 10 0 6 -2 10 -4 10 -3 0
-8 -4 -11 -10z"/>
<path d="M4000 4926 c0 -9 5 -16 10 -16 6 0 10 4 10 9 0 6 -4 13 -10 16 -5 3
-10 -1 -10 -9z"/>
<path d="M5655 4710 c-3 -5 -1 -10 4 -10 6 0 11 5 11 10 0 6 -2 10 -4 10 -3 0
-8 -4 -11 -10z"/>
<path d="M5777 4705 c-4 -8 -2 -17 3 -20 6 -4 10 3 10 14 0 25 -6 27 -13 6z"/>
<path d="M5687 4663 c-4 -3 -7 -11 -7 -17 0 -6 5 -5 12 2 6 6 9 14 7 17 -3 3
-9 2 -12 -2z"/>
<path d="M5420 4336 c0 -9 7 -16 15 -16 17 0 20 -32 5 -61 -7 -12 -7 -19 -1
-19 15 0 33 38 29 62 -2 11 -13 27 -25 36 -21 13 -23 13 -23 -2z"/>
<path d="M5540 4324 c0 -11 -4 -24 -9 -29 -5 -6 -13 -27 -16 -47 -6 -30 -4
-38 8 -38 24 0 34 23 32 73 -2 46 -15 81 -15 41z"/>
<path d="M5527 4193 c-11 -11 -8 -53 4 -53 6 0 9 -7 5 -15 -3 -8 -1 -15 4 -15
6 0 10 9 10 20 0 11 -5 20 -12 20 -6 0 -4 7 5 18 20 22 4 46 -16 25z"/>
<path d="M5330 4129 c0 -5 5 -7 10 -4 6 3 10 8 10 11 0 2 -4 4 -10 4 -5 0 -10
-5 -10 -11z"/>
<path d="M5490 4119 c0 -5 5 -7 10 -4 6 3 10 8 10 11 0 2 -4 4 -10 4 -5 0 -10
-5 -10 -11z"/>
<path d="M5300 4110 c-13 -8 -12 -10 3 -10 9 0 17 5 17 10 0 12 -1 12 -20 0z"/>
<path d="M5415 4021 c-3 -5 -1 -12 5 -16 5 -3 10 1 10 9 0 18 -6 21 -15 7z"/>
<path d="M2643 5833 c-7 -3 -13 -11 -13 -19 0 -8 -8 -18 -17 -21 -23 -9 -37
-23 -46 -46 -12 -32 3 -38 28 -11 16 17 31 25 44 21 16 -4 20 2 23 35 4 42 1
48 -19 41z"/>
<path d="M2820 5830 c0 -5 5 -10 10 -10 6 0 10 5 10 10 0 6 -4 10 -10 10 -5 0
-10 -4 -10 -10z"/>
<path d="M4426 5775 c-3 -8 -1 -15 4 -15 6 0 10 7 10 15 0 8 -2 15 -4 15 -2 0
-6 -7 -10 -15z"/>
<path d="M4456 5775 c4 -8 8 -15 10 -15 2 0 4 7 4 15 0 8 -4 15 -10 15 -5 0
-7 -7 -4 -15z"/>
<path d="M5987 5551 c-3 -15 -11 -18 -27 -14 -18 5 -21 2 -18 -13 2 -10 12
-20 22 -22 11 -3 16 0 12 7 -4 6 -3 11 3 11 5 0 12 -6 14 -12 3 -7 6 4 6 25 1
40 -4 48 -12 18z"/>
<path d="M5955 5443 c3 -16 16 -37 27 -48 l20 -20 -5 39 c-6 36 -20 55 -41 56
-4 0 -5 -12 -1 -27z"/>
<path d="M1144 5452 c7 -11 -16 -22 -45 -22 -11 0 -19 -7 -19 -16 0 -11 -6
-13 -19 -9 -16 5 -18 2 -14 -17 3 -13 7 -30 10 -38 4 -8 5 -21 4 -27 -1 -7 3
-13 9 -13 5 0 10 -8 10 -17 0 -15 2 -16 10 -3 6 9 5 17 -3 22 -9 6 -8 10 3 18
13 8 12 11 -4 23 -18 13 -18 14 5 20 26 7 53 -12 72 -52 16 -33 52 -43 42 -12
-4 13 -2 21 5 21 6 0 1 10 -10 22 -15 17 -20 33 -18 63 3 35 0 40 -21 43 -13
2 -21 0 -17 -6z"/>
<path d="M4756 5441 c-4 -7 -5 -15 -2 -18 9 -9 19 4 14 18 -4 11 -6 11 -12 0z"/>
<path d="M5912 5340 c0 -14 2 -19 5 -12 2 6 2 18 0 25 -3 6 -5 1 -5 -13z"/>
<path d="M1030 5343 c0 -5 5 -15 10 -23 8 -12 10 -11 10 8 0 12 -4 22 -10 22
-5 0 -10 -3 -10 -7z"/>
<path d="M1365 5283 c-11 -3 -31 -10 -45 -16 -14 -6 -28 -10 -31 -9 -17 3 -15
-39 2 -54 18 -16 20 -16 32 0 10 14 27 18 66 18 48 0 51 1 37 17 -9 10 -16 25
-16 34 0 17 -8 19 -45 10z"/>
<path d="M5992 5255 c0 -16 2 -22 5 -12 2 9 2 23 0 30 -3 6 -5 -1 -5 -18z"/>
<path d="M4703 5253 c-31 -6 -29 -18 2 -18 14 0 25 6 25 13 0 6 -1 11 -2 11
-2 -1 -13 -4 -25 -6z"/>
<path d="M946 5212 c16 -16 30 -27 32 -26 9 5 -24 43 -42 48 -16 4 -14 -1 10
-22z"/>
<path d="M4403 5185 c-3 -9 -3 -19 1 -22 3 -4 6 1 6 10 0 8 8 18 18 20 16 4
16 5 -1 6 -10 0 -20 -6 -24 -14z"/>
<path d="M4820 5189 c0 -5 5 -7 10 -4 6 3 10 8 10 11 0 2 -4 4 -10 4 -5 0 -10
-5 -10 -11z"/>
<path d="M1200 5170 c-13 -8 -11 -13 12 -35 15 -14 31 -24 35 -23 4 1 23 -2
41 -6 18 -4 35 -6 38 -4 11 12 -72 78 -98 78 -7 0 -20 -5 -28 -10z"/>
<path d="M1152 5113 c-7 -3 2 -15 23 -29 43 -29 49 -30 35 -4 -12 23 -40 39
-58 33z"/>
<path d="M1071 5048 c0 -7 4 -22 8 -32 10 -25 22 -6 14 22 -6 23 -23 31 -22
10z"/>
<path d="M5465 5050 c-8 -13 -1 -24 14 -19 6 3 7 10 2 18 -6 10 -10 10 -16 1z"/>
<path d="M5810 5050 c0 -5 5 -10 10 -10 6 0 10 5 10 10 0 6 -4 10 -10 10 -5 0
-10 -4 -10 -10z"/>
<path d="M5764 5032 c3 -18 18 -20 24 -4 1 5 -4 12 -12 15 -9 4 -13 0 -12 -11z"/>
<path d="M5350 5027 c0 -7 9 -13 20 -14 11 -1 20 4 20 13 0 8 -9 14 -20 14
-11 0 -20 -6 -20 -13z"/>
<path d="M5315 5009 c-9 -28 -2 -33 13 -9 6 11 8 21 3 25 -5 3 -13 -4 -16 -16z"/>
<path d="M5480 5000 c0 -5 5 -10 10 -10 6 0 10 5 10 10 0 6 -4 10 -10 10 -5 0
-10 -4 -10 -10z"/>
<path d="M5057 4984 c-12 -12 -8 -21 13 -27 11 -3 23 0 27 5 3 7 1 8 -5 4 -6
-3 -15 1 -19 9 -5 9 -12 12 -16 9z"/>
<path d="M1387 4923 c-3 -4 -3 -22 -1 -40 4 -32 -12 -55 -25 -35 -11 19 -64 7
-72 -16 -4 -11 -15 -25 -25 -30 -10 -6 -15 -16 -11 -26 4 -9 3 -16 -1 -16 -5
0 -8 -15 -9 -34 -1 -26 4 -35 18 -39 13 -3 19 0 19 10 0 14 3 13 20 -2 29 -26
25 -38 -10 -32 -16 4 -32 2 -35 -3 -4 -6 7 -10 24 -10 17 0 31 -4 31 -10 0 -5
-5 -10 -11 -10 -7 0 -10 -16 -7 -42 3 -30 0 -46 -10 -54 -10 -8 -13 -17 -7
-30 4 -10 7 -22 7 -26 -4 -18 30 -6 35 12 3 11 8 20 12 20 3 0 12 -9 19 -20 7
-11 18 -20 26 -20 9 0 12 7 9 20 -3 11 -11 20 -17 20 -7 0 -13 17 -14 38 -2
28 3 43 18 57 11 10 20 26 20 36 0 11 5 16 13 13 7 -2 20 9 30 26 10 16 14 30
8 30 -5 0 -11 -6 -14 -12 -7 -20 -56 38 -59 69 -2 16 2 28 9 28 18 0 28 15 10
15 -9 0 -17 5 -17 11 0 6 8 8 19 4 16 -5 18 -2 14 15 -3 11 -1 20 5 20 6 0 9
12 6 28 -6 30 -19 48 -27 35z"/>
<path d="M5045 4887 c-8 -32 12 -67 26 -45 12 19 11 32 -5 54 -14 18 -15 18
-21 -9z"/>
<path d="M4570 4775 c0 -14 5 -25 10 -25 6 0 10 11 10 25 0 14 -4 25 -10 25
-5 0 -10 -11 -10 -25z"/>
<path d="M4626 4635 c4 -8 8 -15 10 -15 2 0 4 7 4 15 0 8 -4 15 -10 15 -5 0
-7 -7 -4 -15z"/>
<path d="M1245 4630 c3 -5 8 -10 11 -10 2 0 4 5 4 10 0 6 -5 10 -11 10 -5 0
-7 -4 -4 -10z"/>
<path d="M5000 4529 c0 -5 5 -7 10 -4 6 3 10 8 10 11 0 2 -4 4 -10 4 -5 0 -10
-5 -10 -11z"/>
<path d="M1360 4445 c0 -9 -9 -15 -23 -15 -12 0 -30 -9 -40 -20 -38 -45 -8
-54 50 -14 55 37 69 64 33 64 -11 0 -20 -7 -20 -15z"/>
<path d="M1420 4395 c0 -9 9 -15 21 -15 43 0 11 -25 -42 -33 -97 -15 -96 -15
-96 -43 0 -14 -7 -31 -14 -36 -10 -7 -11 -11 -2 -14 7 -3 9 -12 6 -20 -3 -8 1
-14 11 -14 9 0 16 -4 16 -10 0 -23 16 -8 26 25 12 39 10 44 -20 46 -14 1 -11
3 9 8 26 6 33 3 48 -22 10 -16 21 -26 25 -23 3 4 0 11 -7 15 -7 5 -10 14 -6
21 5 8 11 4 19 -12 11 -22 56 -35 56 -16 0 6 7 8 15 4 13 -4 15 1 11 32 -3 20
-5 42 -5 49 -1 15 -50 73 -62 73 -5 0 -9 -7 -9 -15z"/>
<path d="M1350 4370 c0 -5 5 -10 10 -10 6 0 10 5 10 10 0 6 -4 10 -10 10 -5 0
-10 -4 -10 -10z"/>
<path d="M4500 4301 c0 -5 5 -13 10 -16 6 -3 10 -2 10 4 0 5 -4 13 -10 16 -5
3 -10 2 -10 -4z"/>
<path d="M4528 4254 c-14 -13 -9 -101 6 -113 11 -9 15 -7 21 11 7 21 8 20 12
-9 4 -34 36 -62 48 -43 4 6 11 8 16 5 5 -4 9 1 9 9 0 9 -4 16 -8 16 -5 0 -14
10 -20 23 -10 21 -11 21 -13 2 -1 -14 -3 -10 -8 10 -5 24 -11 29 -28 27 -18
-3 -22 3 -25 33 -2 20 -6 33 -10 29z"/>
<path d="M4490 4174 c0 -8 5 -12 10 -9 6 3 10 10 10 16 0 5 -4 9 -10 9 -5 0
-10 -7 -10 -16z"/>
<path d="M1350 4116 c0 -8 5 -18 10 -21 6 -3 10 1 10 9 0 8 -4 18 -10 21 -5 3
-10 -1 -10 -9z"/>
<path d="M4671 4087 c-15 -19 -4 -46 17 -43 10 2 17 12 17 26 0 28 -17 36 -34
17z"/>
<path d="M4630 4076 c0 -8 5 -18 10 -21 6 -3 10 1 10 9 0 8 -4 18 -10 21 -5 3
-10 -1 -10 -9z"/>
<path d="M4956 4071 c-4 -7 -5 -15 -2 -18 9 -9 19 4 14 18 -4 11 -6 11 -12 0z"/>
<path d="M4380 4040 c0 -11 4 -20 9 -20 13 0 32 26 24 33 -13 14 -33 6 -33
-13z"/>
<path d="M1286 3994 c-26 -19 -19 -39 12 -38 38 1 51 10 45 32 -5 20 -34 23
-57 6z"/>
<path d="M1471 3954 c0 -11 3 -14 6 -6 3 7 2 16 -1 19 -3 4 -6 -2 -5 -13z"/>
<path d="M1310 3866 c0 -30 15 -42 24 -20 10 27 7 44 -9 44 -9 0 -15 -9 -15
-24z"/>
<path d="M1450 3861 c0 -16 -3 -36 -6 -45 -3 -9 -1 -16 5 -16 6 0 11 16 11 35
0 19 5 35 10 35 6 0 10 5 10 10 0 6 -7 10 -15 10 -10 0 -15 -10 -15 -29z"/>
<path d="M1277 3729 c-7 -25 2 -51 14 -43 12 7 12 64 0 64 -5 0 -11 -9 -14
-21z"/>
<path d="M1461 3733 l-25 -5 25 -19 c18 -14 20 -19 8 -19 -22 0 -32 -27 -13
-34 22 -9 24 -8 24 11 0 15 2 14 15 -3 14 -18 14 -18 15 6 0 32 -10 70 -19 69
-3 -1 -17 -4 -30 -6z"/>
<path d="M1414 3659 c-5 -8 -19 -20 -31 -27 -19 -10 -23 -10 -24 0 0 7 -5 1
-11 -14 -14 -38 14 -65 65 -63 30 1 37 -2 37 -17 0 -10 7 -18 15 -18 8 0 15 5
15 10 0 6 8 10 18 8 9 -2 17 3 16 10 -5 61 -4 58 -15 39 -5 -9 -7 -22 -4 -27
3 -6 2 -10 -3 -10 -5 0 -12 9 -15 20 -3 13 -14 20 -29 20 -12 0 -18 4 -13 8 7
5 7 18 -1 41 -8 26 -13 31 -20 20z"/>
<path d="M2435 1183 c-45 -9 -67 -27 -62 -49 3 -17 -7 -33 -37 -62 -23 -22
-49 -42 -59 -46 -10 -3 -15 -10 -12 -16 3 -5 1 -10 -4 -10 -6 0 -11 -8 -11
-17 0 -10 -23 -42 -50 -72 -28 -29 -50 -59 -50 -66 0 -20 -50 -47 -76 -42 -23
4 -24 3 -9 -13 13 -15 14 -19 1 -29 -8 -6 -19 -10 -26 -9 -7 2 -15 -3 -18 -11
-2 -8 0 -11 6 -7 6 3 13 2 17 -4 8 -13 -46 -80 -64 -80 -8 0 -11 -3 -8 -7 4
-3 -2 -17 -14 -29 -13 -14 -19 -30 -15 -39 4 -12 1 -15 -17 -13 -17 2 -22 -2
-22 -19 0 -11 -3 -25 -7 -29 -5 -4 -8 -1 -8 7 0 12 -2 12 -9 0 -5 -8 -7 -20
-4 -26 2 -7 -7 -22 -21 -33 -14 -11 -26 -25 -26 -31 0 -6 -7 -11 -15 -11 -8 0
-21 -15 -29 -33 -7 -19 -24 -42 -37 -53 -13 -10 -37 -36 -52 -57 -20 -26 -34
-36 -46 -32 -12 3 -17 -1 -18 -15 -2 -29 -28 -51 -50 -43 -16 6 -16 5 -4 -10
12 -15 10 -18 -18 -23 -23 -5 -31 -12 -31 -28 0 -14 -3 -17 -8 -8 -6 9 -12 5
-22 -13 -7 -14 -22 -25 -32 -25 -11 0 -16 -4 -13 -10 3 -5 -6 -12 -20 -16 -14
-3 -25 -12 -25 -20 0 -8 -6 -14 -14 -14 -8 0 -18 -4 -21 -10 -4 -7 90 -10 274
-10 263 0 281 1 281 18 0 20 33 118 43 129 4 3 7 16 7 28 0 13 7 28 15 35 8 7
15 20 15 29 0 10 11 28 24 41 19 17 24 29 19 51 -4 21 -1 30 11 35 9 3 16 14
16 23 1 23 24 51 43 51 9 0 18 9 22 20 3 11 9 19 13 19 21 -3 31 3 26 15 -3 9
3 17 15 21 12 3 21 12 21 20 0 7 7 16 16 19 14 5 10 13 -19 41 -20 19 -42 35
-50 35 -16 0 -29 34 -21 55 3 7 13 11 23 8 10 -2 25 3 34 11 8 9 18 16 22 16
11 0 41 35 53 64 9 20 18 27 31 23 14 -3 17 0 14 14 -3 11 0 19 7 19 7 0 10 8
7 20 -3 11 -1 20 4 20 5 0 6 12 3 28 -2 15 2 56 10 92 8 36 15 59 15 53 1 -18
21 -16 21 1 0 7 9 16 21 19 15 4 19 11 15 24 -7 22 11 53 22 37 13 -19 42 -25
42 -9 0 8 -4 15 -10 15 -5 0 -9 10 -7 21 2 24 -7 29 -38 22z"/>
<path d="M2360 840 c0 -5 5 -10 10 -10 6 0 10 5 10 10 0 6 -4 10 -10 10 -5 0
-10 -4 -10 -10z"/>
<path d="M4016 805 c-3 -9 -6 -24 -5 -33 0 -9 5 -4 10 12 9 32 6 48 -5 21z"/>
<path d="M4056 795 c3 -8 9 -14 12 -13 18 2 32 -3 47 -18 10 -10 22 -13 33 -8
15 6 15 8 -3 12 -11 2 -32 13 -47 23 -31 23 -49 25 -42 4z"/>
<path d="M2315 779 c-4 -6 -5 -12 -2 -15 2 -3 7 2 10 11 7 17 1 20 -8 4z"/>
<path d="M4054 762 c-6 -4 -14 -19 -18 -34 -3 -16 -10 -28 -15 -28 -5 0 -7 10
-4 21 6 20 5 20 -19 -2 -13 -13 -23 -32 -22 -42 2 -10 -3 -20 -11 -24 -8 -3
-13 -9 -10 -13 3 -4 -3 -7 -13 -6 -12 1 -18 -8 -20 -28 -2 -17 0 -26 7 -22 5
4 13 1 17 -5 3 -6 0 -15 -7 -20 -11 -6 -11 -11 -1 -21 16 -16 15 -46 -3 -64
-9 -10 -15 -11 -15 -4 0 7 -6 6 -15 -4 -8 -8 -15 -21 -15 -30 0 -8 -4 -18 -10
-21 -5 -3 -10 -21 -10 -39 0 -59 -12 -98 -32 -103 -10 -3 -19 -9 -19 -14 -2
-14 -5 -22 -18 -53 -9 -23 -9 -31 1 -38 9 -5 9 -8 1 -8 -6 0 -16 -14 -22 -30
-5 -17 -15 -30 -20 -30 -6 0 -11 -5 -11 -12 0 -6 -6 -19 -14 -27 -7 -9 -17
-26 -20 -38 l-7 -22 382 -1 382 -1 -42 42 c-22 23 -41 45 -41 50 0 5 -7 9 -15
9 -8 0 -15 4 -15 8 0 4 -15 24 -32 43 -94 100 -218 406 -218 535 0 19 -6 34
-15 38 -9 3 -19 14 -23 25 -4 12 -12 17 -18 13z m-62 -254 c-7 -7 -12 -8 -12
-2 0 14 12 26 19 19 2 -3 -1 -11 -7 -17z"/>
<path d="M3945 670 c-3 -5 -1 -10 4 -10 6 0 11 5 11 10 0 6 -2 10 -4 10 -3 0
-8 -4 -11 -10z"/>
<path d="M4188 643 c6 -2 12 -11 12 -19 0 -8 5 -14 11 -14 6 0 8 7 5 16 -3 9
-6 18 -6 20 0 2 -8 4 -17 3 -11 0 -13 -3 -5 -6z"/>
<path d="M4230 610 c0 -12 4 -19 9 -16 4 3 16 -3 25 -13 19 -21 52 -30 151
-40 39 -4 79 -12 90 -16 18 -8 18 -7 -2 14 -17 18 -42 26 -119 37 -63 10 -107
22 -126 35 l-28 20 0 -21z"/>
<path d="M5500 593 c-71 -19 -104 -53 -97 -100 5 -25 2 -35 -13 -43 -16 -9
-19 -5 -25 30 -4 22 -11 40 -15 40 -9 0 -30 -62 -30 -87 0 -7 -4 -13 -10 -13
-5 0 -10 -7 -10 -16 0 -29 -31 -83 -71 -121 -21 -21 -39 -46 -39 -55 0 -10 -4
-18 -10 -18 -15 0 -52 -39 -46 -49 3 -4 -1 -8 -9 -8 -8 0 -12 4 -10 8 3 4 -4
5 -15 2 -11 -3 -18 -9 -15 -13 3 -4 -6 -11 -20 -14 -14 -4 -25 -11 -25 -16 0
-6 -5 -10 -10 -10 -6 0 -9 3 -8 7 1 5 -6 22 -15 40 -10 20 -13 34 -7 38 13 8
30 -3 30 -20 0 -8 4 -17 10 -20 5 -3 7 0 4 8 -3 8 2 17 12 21 13 5 14 9 4 21
-10 12 -9 16 2 20 8 3 19 5 24 3 5 -2 10 1 11 5 1 5 13 23 27 42 29 37 34 76
12 94 -11 9 -15 5 -20 -20 -6 -30 -8 -31 -40 -26 -33 5 -36 3 -46 -29 -10 -28
-16 -34 -41 -34 -19 0 -29 -5 -29 -15 0 -8 -12 -18 -26 -21 -14 -4 -29 -17
-34 -30 -6 -15 -15 -22 -24 -18 -21 8 -29 -12 -11 -29 8 -9 15 -18 15 -22 0
-9 -27 -35 -36 -35 -4 0 -16 -7 -26 -17 -10 -9 -18 -11 -18 -5 0 6 6 13 13 15
7 4 6 6 -4 6 -9 1 -19 -8 -22 -19 -3 -13 -14 -20 -29 -21 -12 0 -43 -2 -68 -4
-27 -2 -48 1 -52 8 -5 8 -8 6 -8 -5 0 -10 -7 -18 -15 -18 -8 0 -15 5 -15 10 0
6 -4 10 -10 10 -17 0 -11 -25 10 -37 13 -9 21 -9 26 -2 4 8 9 7 15 -2 6 -11
12 -11 34 1 21 11 32 11 59 2 24 -9 198 -12 649 -12 l617 0 0 109 0 109 -27 6
c-16 3 -48 8 -73 11 -54 8 -184 45 -178 51 3 2 29 -2 59 -10 30 -8 81 -17 114
-21 33 -4 70 -11 83 -16 l22 -9 0 119 0 118 -37 7 c-21 3 -49 9 -63 12 -24 6
-24 6 -5 -9 10 -8 24 -13 30 -10 7 2 18 -3 25 -12 11 -13 9 -15 -10 -15 -12 0
-36 6 -53 14 -76 35 -113 46 -187 58 -52 8 -80 17 -80 25 0 9 14 13 42 13 54
0 46 7 -12 11 -64 4 -74 9 -53 24 10 8 14 17 10 21 -4 5 -13 2 -18 -6 -8 -11
-12 -12 -16 -2 -2 6 -8 11 -11 11 -4 -1 -32 -8 -62 -16z m70 -67 c0 -3 -4 -8
-10 -11 -5 -3 -10 -1 -10 4 0 6 5 11 10 11 6 0 10 -2 10 -4z m183 -43 c-7 -2
-19 -2 -25 0 -7 3 -2 5 12 5 14 0 19 -2 13 -5z m-793 -313 c0 -5 -7 -10 -15
-10 -8 0 -15 -9 -15 -20 0 -19 -24 -28 -34 -12 -6 11 5 26 29 40 25 14 35 15
35 2z m784 -37 c-10 -40 -14 -41 -14 -5 0 18 5 32 10 32 6 0 8 -11 4 -27z m90
9 c5 -3 1 -9 -8 -14 -9 -5 -16 -19 -16 -30 0 -34 -12 -12 -15 26 -2 34 5 37
39 18z m56 -37 c0 -22 -5 -35 -13 -35 -9 0 -12 11 -9 35 2 19 8 35 13 35 5 0
9 -16 9 -35z m88 -11 c-1 -28 -5 -34 -23 -34 -15 0 -25 8 -29 23 -10 38 -7 44
24 45 27 1 29 -2 28 -34z m-973 6 c-3 -5 -12 -7 -20 -3 -21 7 -19 13 6 13 11
0 18 -4 14 -10z"/>
<path d="M3830 359 c0 -11 5 -17 10 -14 6 3 10 13 10 21 0 8 -4 14 -10 14 -5
0 -10 -9 -10 -21z"/>
<path d="M4280 351 c0 -17 12 -41 21 -41 5 0 9 11 9 25 0 16 -6 25 -15 25 -8
0 -15 -4 -15 -9z"/>
<path d="M4316 295 c-3 -9 0 -15 8 -15 8 0 16 -10 20 -23 3 -13 18 -29 32 -36
26 -11 26 -11 13 6 -8 10 -22 27 -31 37 -10 11 -18 26 -18 33 0 18 -17 16 -24
-2z"/>
<path d="M4400 193 c0 -14 14 -28 48 -52 33 -23 62 -21 31 2 -9 7 -18 19 -22
27 -3 9 -6 10 -6 3 -1 -20 -18 -15 -24 7 -5 19 -27 29 -27 13z"/>
<path d="M4500 76 c0 -9 40 -13 46 -5 3 5 -6 9 -20 9 -14 0 -26 -2 -26 -4z"/>
</g>
</svg>
